<?xml version="1.0" encoding="UTF-8"?>
<!DOCTYPE svg PUBLIC "-//W3C//DTD SVG 1.1//EN" "http://www.w3.org/Graphics/SVG/1.1/DTD/svg11.dtd">
<!-- Creator: CorelDRAW X7 -->
<svg xmlns="http://www.w3.org/2000/svg" xml:space="preserve" width="150px" height="103px" version="1.1" style="shape-rendering:geometricPrecision; text-rendering:geometricPrecision; image-rendering:optimizeQuality; fill-rule:evenodd; clip-rule:evenodd"
viewBox="0 0 11272 7738"
 xmlns:xlink="http://www.w3.org/1999/xlink">
 <defs>
  <style type="text/css">
   <![CDATA[
    .fil0 {fill:#ffffff;fill-rule:nonzero}
   ]]>
  </style>
 </defs>
 <g id="logoCamberSvg">
  <g id="_1590886927440">
   <g>
    <path class="fil0" d="M294 6481c-236,-211 -294,-487 -294,-718 0,-163 56,-447 272,-662 145,-146 366,-260 740,-260 97,0 233,7 352,29 92,17 170,32 247,36 27,3 32,13 32,27 0,19 -7,49 -12,136 -5,80 -5,214 -7,250 -3,36 -8,51 -22,51 -17,0 -20,-17 -20,-51 0,-95 -39,-194 -102,-248 -85,-72 -271,-138 -485,-138 -323,0 -473,95 -558,177 -177,170 -219,386 -219,634 0,463 357,888 877,888 181,0 325,-22 422,-122 51,-53 82,-160 89,-203 5,-27 10,-37 25,-37 12,0 17,17 17,37 0,17 -29,228 -54,310 -14,46 -19,51 -63,71 -97,38 -281,55 -436,55 -365,0 -610,-89 -801,-262z"/>
    <path class="fil0" d="M2580 4936c29,-81 38,-95 53,-95 14,0 24,12 53,87 37,92 418,1095 566,1464 87,215 157,254 208,269 37,12 73,14 97,14 15,0 25,3 25,15 0,15 -22,19 -49,19 -36,0 -213,0 -381,-4 -46,-3 -73,-3 -73,-17 0,-10 8,-15 17,-17 15,-5 30,-27 15,-66l-226 -597c-5,-10 -9,-14 -22,-14l-521 0c-12,0 -20,7 -25,19l-145 429c-22,61 -34,119 -34,163 0,49 51,70 92,70l24 0c17,0 25,5 25,15 0,15 -15,19 -37,19 -58,0 -162,-7 -189,-7 -27,0 -160,7 -274,7 -32,0 -46,-4 -46,-19 0,-10 9,-15 21,-15 17,0 51,-2 71,-4 111,-15 160,-107 204,-229l551 -1506zm252 970l0 0c12,0 12,-7 10,-17l-231 -655c-12,-36 -24,-36 -36,0l-214 655c-5,12 0,17 7,17l464 0z"/>
    <path class="fil0" d="M5795 6399c10,87 26,223 131,257 70,22 133,22 158,22 12,0 19,2 19,12 0,15 -22,22 -51,22 -53,0 -315,-3 -405,-10 -56,-5 -68,-12 -68,-24 0,-10 5,-15 17,-17 12,-3 14,-44 9,-87l-116 -1260 -7 0 -595 1262c-51,107 -58,129 -80,129 -17,0 -29,-25 -75,-112 -63,-119 -272,-539 -284,-563 -22,-44 -294,-626 -320,-692l-10 0 -97 1126c-3,39 -3,83 -3,124 0,36 27,68 64,75 41,10 77,12 92,12 9,0 19,5 19,13 0,17 -14,21 -43,21 -90,0 -207,-7 -226,-7 -22,0 -138,7 -204,7 -24,0 -41,-4 -41,-21 0,-8 12,-13 24,-13 19,0 36,0 73,-7 80,-14 87,-109 97,-201l175 -1582c2,-27 12,-44 26,-44 15,0 25,10 37,36l742 1527 714 -1524c9,-22 19,-39 36,-39 17,0 24,19 29,65l163 1493z"/>
    <path class="fil0" d="M6537 5579c0,-379 0,-447 -5,-525 -5,-82 -24,-121 -104,-138 -19,-5 -61,-7 -82,-7 -10,0 -20,-5 -20,-15 0,-14 12,-19 39,-19 109,0 262,7 274,7 58,0 153,-7 265,-7 398,0 485,243 485,364 0,199 -114,318 -228,437 180,55 420,228 420,512 0,259 -204,529 -619,529 -27,0 -104,-5 -175,-8 -70,-4 -138,-7 -148,-7 -5,0 -46,0 -97,3 -48,0 -104,4 -141,4 -26,0 -38,-4 -38,-19 0,-7 4,-15 19,-15 22,0 51,-4 73,-9 48,-10 60,-63 70,-134 12,-102 12,-293 12,-526l0 -427zm194 53l0 0c0,17 5,22 17,27 15,2 59,9 148,9 136,0 170,-5 221,-63 51,-58 88,-145 88,-245 0,-201 -90,-417 -328,-417 -27,0 -78,2 -116,12 -22,5 -30,12 -30,27l0 650zm0 257l0 0c0,187 0,488 3,524 7,119 7,153 82,190 66,31 170,36 214,36 131,0 342,-70 342,-345 0,-145 -49,-356 -235,-485 -83,-56 -144,-63 -202,-70 -31,-5 -153,-5 -189,-5 -10,0 -15,5 -15,17l0 138z"/>
    <path class="fil0" d="M8168 5579c0,-379 0,-447 -5,-525 -5,-82 -24,-121 -104,-138 -20,-5 -61,-7 -83,-7 -9,0 -19,-5 -19,-15 0,-14 12,-19 39,-19 55,0 121,0 174,2l100 5c17,0 500,0 556,-2 46,-3 84,-8 104,-12 12,-3 22,-13 34,-13 7,0 10,10 10,22 0,17 -13,46 -20,114 -2,25 -7,131 -12,161 -2,12 -7,26 -17,26 -15,0 -19,-12 -19,-31 0,-17 -3,-59 -15,-88 -17,-39 -41,-68 -172,-82 -41,-5 -306,-7 -333,-7 -9,0 -14,7 -14,24l0 669c0,18 2,25 14,25 32,0 330,0 386,-5 58,-5 92,-10 114,-34 17,-19 27,-32 37,-32 7,0 12,5 12,20 0,14 -12,56 -20,136 -5,48 -9,138 -9,155 0,19 0,46 -17,46 -12,0 -17,-10 -17,-22 0,-24 0,-48 -10,-80 -10,-34 -32,-75 -126,-85 -66,-7 -306,-12 -347,-12 -12,0 -17,7 -17,17l0 214c0,82 -3,364 0,415 7,167 43,199 281,199 63,0 170,0 233,-27 63,-27 92,-75 109,-175 5,-26 10,-36 22,-36 15,0 15,19 15,36 0,20 -20,185 -32,236 -17,63 -36,63 -131,63 -182,0 -315,-5 -410,-8 -95,-4 -153,-7 -189,-7 -5,0 -46,0 -97,3 -49,0 -105,4 -141,4 -27,0 -39,-4 -39,-19 0,-7 5,-15 20,-15 22,0 51,-4 72,-9 49,-10 61,-63 71,-134 12,-102 12,-293 12,-526l0 -427z"/>
    <path class="fil0" d="M9648 5579c0,-379 0,-447 -5,-525 -5,-82 -24,-121 -104,-138 -20,-5 -61,-7 -83,-7 -9,0 -19,-5 -19,-15 0,-14 12,-19 39,-19 109,0 262,7 274,7 27,0 211,-7 286,-7 153,0 316,14 444,107 61,43 168,162 168,330 0,179 -75,359 -294,560 199,255 364,471 505,621 131,139 235,165 296,175 46,7 80,7 95,7 12,0 22,8 22,15 0,15 -15,19 -59,19l-172 0c-136,0 -197,-12 -260,-46 -104,-56 -189,-174 -327,-356 -102,-134 -216,-296 -265,-360 -9,-9 -17,-14 -31,-14l-299 -5c-12,0 -17,7 -17,19l0 59c0,233 0,424 12,526 8,71 22,124 95,134 34,5 87,9 109,9 15,0 20,8 20,15 0,12 -13,19 -39,19 -134,0 -287,-7 -299,-7 -2,0 -155,7 -228,7 -26,0 -39,-4 -39,-19 0,-7 5,-15 20,-15 22,0 51,-4 73,-9 48,-10 60,-63 70,-134 12,-102 12,-293 12,-526l0 -427zm194 211l0 0c0,12 5,22 17,29 37,22 148,39 255,39 58,0 126,-8 182,-46 85,-59 148,-190 148,-374 0,-304 -160,-486 -420,-486 -73,0 -138,8 -162,15 -12,5 -20,15 -20,29l0 794z"/>
   </g>
   <g>
    <g>
     <path class="fil0" d="M3817 7281c0,-152 0,-179 -2,-210 -2,-33 -10,-49 -42,-56 -8,-2 -24,-3 -33,-3 -4,0 -8,-2 -8,-6 0,-5 5,-7 16,-7 44,0 105,3 110,3 11,0 85,-3 115,-3 61,0 126,5 178,42 24,18 67,66 67,133 0,72 -30,144 -118,225 80,102 147,189 203,249 53,56 95,67 119,70 18,3 32,3 38,3 5,0 9,3 9,6 0,6 -6,8 -24,8l-69 0c-54,0 -79,-5 -104,-18 -42,-23 -76,-71 -132,-144 -41,-53 -86,-119 -106,-144 -4,-4 -7,-6 -12,-6l-120 -2c-5,0 -7,3 -7,8l0 24c0,93 0,170 5,211 3,28 8,50 38,53 13,2 35,4 44,4 5,0 7,3 7,6 0,5 -4,8 -15,8 -54,0 -115,-3 -120,-3 -1,0 -62,3 -92,3 -10,0 -15,-2 -15,-8 0,-3 2,-6 8,-6 8,0 20,-2 29,-4 19,-3 24,-25 28,-53 5,-41 5,-118 5,-211l0 -172zm78 85l0 0c0,5 2,9 7,12 14,8 59,15 102,15 23,0 51,-3 73,-18 34,-24 59,-76 59,-150 0,-122 -64,-195 -168,-195 -29,0 -56,3 -65,6 -5,2 -8,5 -8,11l0 319z"/>
     <path class="fil0" d="M4551 7281c0,-152 0,-179 -2,-210 -2,-33 -9,-49 -42,-56 -7,-2 -24,-3 -33,-3 -4,0 -7,-2 -7,-6 0,-5 5,-7 15,-7 23,0 49,0 70,1l40 2c7,0 201,0 223,-1 19,-1 34,-3 42,-5 5,-1 9,-5 14,-5 3,0 4,4 4,9 0,6 -5,18 -8,45 -1,10 -3,53 -5,65 -1,5 -3,10 -7,10 -6,0 -8,-4 -8,-12 0,-7 -1,-24 -5,-35 -7,-16 -17,-28 -70,-33 -16,-2 -122,-3 -133,-3 -4,0 -6,3 -6,9l0 269c0,7 1,10 6,10 13,0 132,0 155,-2 23,-2 37,-4 46,-14 6,-7 10,-12 14,-12 3,0 5,2 5,7 0,6 -5,23 -8,55 -2,19 -4,56 -4,62 0,8 0,19 -6,19 -5,0 -7,-4 -7,-9 0,-10 0,-19 -4,-32 -4,-14 -13,-30 -51,-34 -26,-3 -122,-5 -139,-5 -5,0 -7,3 -7,7l0 86c0,33 -1,146 0,166 3,67 18,80 113,80 25,0 68,0 94,-11 25,-10 37,-30 43,-70 2,-11 4,-14 9,-14 6,0 6,7 6,14 0,8 -8,74 -13,95 -6,25 -14,25 -52,25 -73,0 -127,-2 -165,-3 -38,-2 -61,-3 -76,-3 -2,0 -18,0 -39,1 -19,0 -42,2 -56,2 -11,0 -16,-2 -16,-8 0,-3 2,-6 8,-6 9,0 20,-2 29,-4 20,-3 25,-25 28,-53 5,-41 5,-118 5,-211l0 -172z"/>
     <path class="fil0" d="M5286 7023c11,-32 15,-38 21,-38 6,0 10,5 22,35 14,37 167,439 226,587 36,87 64,103 84,109 15,4 29,5 39,5 6,0 10,1 10,6 0,6 -9,8 -20,8 -14,0 -85,0 -152,-2 -19,-1 -30,-1 -30,-7 0,-4 3,-6 7,-7 6,-2 12,-10 6,-26l-91 -240c-2,-3 -4,-5 -8,-5l-210 0c-5,0 -8,3 -10,7l-58 173c-9,24 -14,48 -14,65 0,20 21,28 37,28l10 0c7,0 10,2 10,6 0,6 -6,8 -15,8 -23,0 -65,-3 -76,-3 -10,0 -64,3 -110,3 -12,0 -18,-2 -18,-8 0,-4 4,-6 8,-6 7,0 21,-1 29,-2 45,-5 64,-42 82,-91l221 -605zm101 390l0 0c5,0 5,-3 4,-7l-93 -263c-5,-15 -9,-15 -14,0l-86 263c-2,5 0,7 3,7l186 0z"/>
     <path class="fil0" d="M5909 7454c0,144 4,206 21,224 16,15 41,22 117,22 52,0 95,-1 118,-29 13,-16 23,-40 25,-59 1,-8 3,-12 9,-12 5,0 6,4 6,14 0,11 -7,69 -15,98 -6,22 -9,26 -61,26 -70,0 -121,-2 -162,-3 -40,-2 -71,-3 -99,-3 -4,0 -20,1 -40,1 -19,1 -41,2 -55,2 -11,0 -16,-2 -16,-8 0,-3 2,-6 8,-6 9,0 20,-2 29,-4 20,-3 24,-25 28,-53 5,-41 5,-118 5,-211l0 -172c0,-152 0,-179 -2,-210 -2,-33 -10,-49 -42,-56 -7,-2 -24,-3 -33,-3 -4,0 -8,-2 -8,-6 0,-5 5,-7 16,-7 44,0 105,3 110,3 5,0 76,-3 105,-3 11,0 16,2 16,7 0,4 -4,6 -8,6 -7,0 -20,1 -32,3 -28,5 -36,22 -38,56 -2,31 -2,58 -2,210l0 173z"/>
     <path class="fil0" d="M6553 7453c0,93 0,170 5,211 3,28 8,50 38,53 13,2 35,4 43,4 6,0 8,3 8,6 0,5 -5,8 -15,8 -54,0 -115,-3 -120,-3 -5,0 -66,3 -96,3 -10,0 -15,-2 -15,-8 0,-3 2,-6 8,-6 8,0 20,-2 29,-4 19,-3 24,-25 28,-53 5,-41 5,-118 5,-211l0 -412 -144 2c-61,0 -84,7 -100,31 -10,16 -13,23 -16,30 -3,8 -6,10 -10,10 -3,0 -5,-3 -5,-9 0,-10 20,-94 22,-101 2,-6 6,-19 9,-19 7,0 17,10 43,12 29,3 66,5 77,5l366 0c31,0 53,-2 69,-5 14,-2 23,-5 27,-5 5,0 5,6 5,12 0,29 -3,96 -3,107 0,8 -3,12 -7,12 -5,0 -7,-3 -8,-16l-1 -11c-3,-29 -26,-52 -119,-53l-123 -2 0 412z"/>
     <path class="fil0" d="M7148 7483c0,-53 -10,-74 -23,-103 -6,-15 -137,-229 -171,-280 -24,-36 -49,-60 -66,-72 -15,-10 -33,-16 -42,-16 -5,0 -10,-2 -10,-7 0,-3 4,-6 13,-6 18,0 91,3 96,3 7,0 44,-3 82,-3 11,0 13,3 13,6 0,4 -6,5 -15,9 -8,4 -13,10 -13,18 0,11 5,23 13,38 16,28 162,279 179,308 19,-41 143,-255 162,-287 13,-20 17,-37 17,-50 0,-13 -4,-24 -16,-27 -9,-3 -15,-5 -15,-10 0,-3 6,-5 16,-5 25,0 56,3 64,3 6,0 76,-3 95,-3 7,0 12,2 12,5 0,5 -4,8 -12,8 -11,0 -29,4 -45,14 -20,12 -30,23 -52,50 -32,39 -168,267 -186,309 -14,35 -14,66 -14,98l0 83c0,16 0,57 3,98 2,28 10,50 40,53 13,2 35,4 43,4 6,0 8,3 8,6 0,5 -5,8 -15,8 -54,0 -115,-3 -120,-3 -5,0 -66,3 -96,3 -10,0 -15,-2 -15,-8 0,-3 2,-6 7,-6 9,0 21,-2 30,-4 19,-3 28,-25 30,-53 3,-41 3,-82 3,-98l0 -83z"/>
    </g>
    <polygon class="fil0" points="0,7365 3469,7510 3469,7213 0,7355 "/>
    <polygon class="fil0" points="11272,7365 7803,7510 7803,7213 11272,7355 "/>
   </g>
   <g>
    <path class="fil0" d="M4879 3361c-721,-612 -810,-1693 -198,-2414 611,-722 1692,-811 2414,-199 139,118 255,254 346,401 -105,-270 -277,-519 -514,-720 -762,-646 -1902,-552 -2548,210 -646,761 -552,1902 210,2548 122,103 254,188 392,253 -35,-25 -69,-51 -102,-79z"/>
    <path class="fil0" d="M4411 1632c529,-784 1594,-990 2378,-461 784,529 990,1594 461,2378 -102,151 -225,281 -361,388 257,-134 486,-332 660,-590 558,-827 340,-1951 -487,-2509 -827,-559 -1951,-341 -2510,486 -89,133 -159,273 -209,418 21,-37 44,-74 68,-110z"/>
    <path class="fil0" d="M6174 995c818,476 1096,1524 621,2342 -476,818 -1524,1096 -2342,620 -158,-92 -296,-205 -412,-334 152,248 365,463 634,619 863,501 1969,208 2471,-655 501,-863 208,-1970 -655,-2471 -139,-81 -283,-141 -431,-181 39,18 77,39 114,60z"/>
    <path class="fil0" d="M6890 2823c-494,806 -1548,1060 -2355,565 -807,-494 -1060,-1548 -566,-2355 96,-156 212,-291 344,-404 -251,146 -471,354 -633,619 -522,851 -254,1964 597,2485 851,522 1964,255 2486,-597 83,-136 147,-279 190,-426 -19,38 -40,76 -63,113z"/>
   </g>
  </g>
 </g>
</svg>
